<svg width="53" height="51" viewBox="0 0 53 51" fill="none" xmlns="http://www.w3.org/2000/svg">
<path d="M11.7234 46.8777H25.9823C27.0221 46.8777 27.8651 47.765 27.8651 48.8596C27.8651 49.9541 27.0221 50.8414 25.9823 50.8414H11.7234C5.2545 50.8269 0.0138347 45.3104 2.69157e-05 38.501V12.3933C-0.0066381 9.11337 1.22476 5.96503 3.42332 3.64084C5.62189 1.31665 8.60752 0.00700083 11.7234 0H21.4134C25.0597 0 28.0157 3.11151 28.0157 6.94974C28.0293 8.59289 29.2914 9.9214 30.8524 9.93575H40.5424C47.0113 9.95029 52.252 15.4668 52.2658 22.2762C52.2802 23.3945 51.4447 24.3208 50.383 24.3637C49.8907 24.3853 49.4114 24.1945 49.056 23.8353C48.7005 23.4761 48.4998 22.9798 48.5002 22.4611C48.5338 20.2118 47.7118 18.0417 46.2172 16.4337C44.7226 14.8257 42.6795 13.9133 40.5424 13.8995H30.8524C27.2061 13.8995 24.2501 10.788 24.2501 6.94974C24.2096 5.32727 22.9552 4.03026 21.4134 4.01658H11.7234C7.32842 4.01658 3.76557 7.76695 3.76557 12.3933V38.501C3.76557 43.1274 7.32842 46.8777 11.7234 46.8777Z" fill="black"/>
<path d="M43.1783 33.9031L38.9358 38.4746L37.4295 36.9684C36.9699 36.3473 36.2046 36.0715 35.4797 36.2657C34.7549 36.46 34.208 37.0874 34.0865 37.8643C33.965 38.6411 34.2918 39.4201 34.9192 39.8487L37.7559 42.7026C38.1093 43.0537 38.5753 43.2518 39.0613 43.2575C39.5722 43.2542 40.0605 43.0352 40.4169 42.6497L45.9648 36.6777C46.6926 35.8896 46.6758 34.6297 45.9271 33.8635C45.1784 33.0973 43.9815 33.115 43.2536 33.9031H43.1783Z" fill="black"/>
<path fill-rule="evenodd" clip-rule="evenodd" d="M35.3208 25.4472H45.3623C49.2899 25.4617 52.4666 28.8174 52.4666 32.9518V43.5218C52.4666 45.5051 51.7181 47.4072 50.3858 48.8097C49.0535 50.2121 47.2465 51 45.3623 51H35.3208C31.3931 51 28.2052 47.6561 28.1914 43.5218V32.9518C28.1914 28.8071 31.3834 25.4472 35.3208 25.4472ZM45.3623 46.587C46.9705 46.587 48.2743 45.2147 48.2743 43.5218V32.9518C48.281 32.1343 47.9772 31.3478 47.4303 30.7672C46.8835 30.1866 46.139 29.8601 45.3623 29.8601H35.3208C33.6987 29.8601 32.3837 31.2443 32.3837 32.9518V43.5218C32.3837 44.3393 32.6939 45.123 33.2455 45.6986C33.797 46.2743 34.5442 46.5941 35.3208 46.587H45.3623Z" fill="black"/>
</svg>
